{
	"asset":
	{
		"version": "2.0",
		"generator": "Unreal Engine 5.2.0"
	},
	"scene": 0,
	"accessors": [
		{
			"bufferView": 0,
			"count": 36,
			"type": "SCALAR",
			"componentType": 5121
		},
		{
			"bufferView": 1,
			"count": 18,
			"type": "VEC3",
			"componentType": 5126,
			"min": [ -3.26749992, 0.57187444, -3.26749992 ],
			"max": [ 3.27749991, 0.615000427, 3.27999997 ]
		},
		{
			"bufferView": 2,
			"count": 18,
			"type": "VEC3",
			"componentType": 5126
		},
		{
			"bufferView": 3,
			"count": 18,
			"type": "VEC4",
			"componentType": 5126
		},
		{
			"bufferView": 4,
			"count": 18,
			"type": "VEC2",
			"componentType": 5126
		},
		{
			"bufferView": 5,
			"count": 5568,
			"type": "SCALAR",
			"componentType": 5123
		},
		{
			"bufferView": 6,
			"count": 2233,
			"type": "VEC3",
			"componentType": 5126,
			"min": [ -5.06369591, 5.62756586, -5.06370211 ],
			"max": [ 5.07521677, 9.40871048, 5.07521057 ]
		},
		{
			"bufferView": 7,
			"count": 2233,
			"type": "VEC3",
			"componentType": 5126
		},
		{
			"bufferView": 8,
			"count": 2233,
			"type": "VEC4",
			"componentType": 5126
		},
		{
			"bufferView": 9,
			"count": 2233,
			"type": "VEC2",
			"componentType": 5126
		},
		{
			"bufferView": 10,
			"count": 20160,
			"type": "SCALAR",
			"componentType": 5123
		},
		{
			"bufferView": 11,
			"count": 10467,
			"type": "VEC3",
			"componentType": 5126,
			"min": [ -3.76471663, 4.73870134, -3.7647121 ],
			"max": [ 3.77622032, 7.59243917, 3.77621937 ]
		},
		{
			"bufferView": 12,
			"count": 10467,
			"type": "VEC3",
			"componentType": 5126
		},
		{
			"bufferView": 13,
			"count": 10467,
			"type": "VEC4",
			"componentType": 5126
		},
		{
			"bufferView": 14,
			"count": 10467,
			"type": "VEC2",
			"componentType": 5126
		},
		{
			"bufferView": 15,
			"count": 18,
			"type": "SCALAR",
			"componentType": 5121
		},
		{
			"bufferView": 16,
			"count": 8,
			"type": "VEC3",
			"componentType": 5126,
			"min": [ -3.07249999, -0.581875503, -3.06999993 ],
			"max": [ 3.17499995, -0.58187449, 3.125 ]
		},
		{
			"bufferView": 17,
			"count": 8,
			"type": "VEC3",
			"componentType": 5126
		},
		{
			"bufferView": 18,
			"count": 8,
			"type": "VEC4",
			"componentType": 5126
		},
		{
			"bufferView": 19,
			"count": 8,
			"type": "VEC2",
			"componentType": 5126
		},
		{
			"bufferView": 20,
			"count": 768,
			"type": "SCALAR",
			"componentType": 5123
		},
		{
			"bufferView": 21,
			"count": 512,
			"type": "VEC3",
			"componentType": 5126,
			"min": [ -3.42750001, -3.14000058, -3.43999982 ],
			"max": [ 3.4849999, 0.0300200172, 3.47000003 ]
		},
		{
			"bufferView": 22,
			"count": 512,
			"type": "VEC3",
			"componentType": 5126
		},
		{
			"bufferView": 23,
			"count": 512,
			"type": "VEC4",
			"componentType": 5126
		},
		{
			"bufferView": 24,
			"count": 512,
			"type": "VEC2",
			"componentType": 5126
		},
		{
			"bufferView": 25,
			"count": 15120,
			"type": "SCALAR",
			"componentType": 5123
		},
		{
			"bufferView": 26,
			"count": 6722,
			"type": "VEC3",
			"componentType": 5126,
			"min": [ -3.44749999, -0.0183194522, -5.26999998 ],
			"max": [ 3.46000004, 4.71000004, 3.46000004 ]
		},
		{
			"bufferView": 27,
			"count": 6722,
			"type": "VEC3",
			"componentType": 5126
		},
		{
			"bufferView": 28,
			"count": 6722,
			"type": "VEC4",
			"componentType": 5126
		},
		{
			"bufferView": 29,
			"count": 6722,
			"type": "VEC2",
			"componentType": 5126
		},
		{
			"bufferView": 30,
			"count": 3915,
			"type": "SCALAR",
			"componentType": 5123
		},
		{
			"bufferView": 31,
			"count": 1511,
			"type": "VEC3",
			"componentType": 5126,
			"min": [ -3.46000004, 0.516874433, -3.43999982 ],
			"max": [ 3.47249985, 4.65500021, 3.46749997 ]
		},
		{
			"bufferView": 32,
			"count": 1511,
			"type": "VEC3",
			"componentType": 5126
		},
		{
			"bufferView": 33,
			"count": 1511,
			"type": "VEC4",
			"componentType": 5126
		},
		{
			"bufferView": 34,
			"count": 1511,
			"type": "VEC2",
			"componentType": 5126
		},
		{
			"bufferView": 35,
			"count": 4986,
			"type": "SCALAR",
			"componentType": 5123
		},
		{
			"bufferView": 36,
			"count": 1588,
			"type": "VEC3",
			"componentType": 5126,
			"min": [ -5.1292963, 4.68496513, -5.12931156 ],
			"max": [ 5.1408391, 9.3279686, 5.14081764 ]
		},
		{
			"bufferView": 37,
			"count": 1588,
			"type": "VEC3",
			"componentType": 5126
		},
		{
			"bufferView": 38,
			"count": 1588,
			"type": "VEC4",
			"componentType": 5126
		},
		{
			"bufferView": 39,
			"count": 1588,
			"type": "VEC2",
			"componentType": 5126
		},
		{
			"bufferView": 40,
			"count": 96,
			"type": "SCALAR",
			"componentType": 5121
		},
		{
			"bufferView": 41,
			"count": 64,
			"type": "VEC3",
			"componentType": 5126,
			"min": [ -3.05840778, 4.55956936, -3.05841875 ],
			"max": [ 3.06994104, 7.43615532, 3.06992793 ]
		},
		{
			"bufferView": 42,
			"count": 64,
			"type": "VEC3",
			"componentType": 5126
		},
		{
			"bufferView": 43,
			"count": 64,
			"type": "VEC4",
			"componentType": 5126
		},
		{
			"bufferView": 44,
			"count": 64,
			"type": "VEC2",
			"componentType": 5126
		},
		{
			"bufferView": 45,
			"count": 3936,
			"type": "SCALAR",
			"componentType": 5123
		},
		{
			"bufferView": 46,
			"count": 1949,
			"type": "VEC3",
			"componentType": 5126,
			"min": [ -4.56736279, 4.96901608, -4.56735659 ],
			"max": [ 4.57886696, 7.64193296, 4.578866 ]
		},
		{
			"bufferView": 47,
			"count": 1949,
			"type": "VEC3",
			"componentType": 5126
		},
		{
			"bufferView": 48,
			"count": 1949,
			"type": "VEC4",
			"componentType": 5126
		},
		{
			"bufferView": 49,
			"count": 1949,
			"type": "VEC2",
			"componentType": 5126
		},
		{
			"bufferView": 50,
			"count": 4416,
			"type": "SCALAR",
			"componentType": 5123
		},
		{
			"bufferView": 51,
			"count": 1089,
			"type": "VEC3",
			"componentType": 5126,
			"min": [ -5.88998938, 5.69154024, -5.88999844 ],
			"max": [ 5.9015131, 8.31632805, 5.90150356 ]
		},
		{
			"bufferView": 52,
			"count": 1089,
			"type": "VEC3",
			"componentType": 5126
		},
		{
			"bufferView": 53,
			"count": 1089,
			"type": "VEC4",
			"componentType": 5126
		},
		{
			"bufferView": 54,
			"count": 1089,
			"type": "VEC2",
			"componentType": 5126
		},
		{
			"bufferView": 55,
			"count": 2340,
			"type": "SCALAR",
			"componentType": 5123
		},
		{
			"bufferView": 56,
			"count": 760,
			"type": "VEC3",
			"componentType": 5126,
			"min": [ -0.357325435, 8.77069378, -0.357322693 ],
			"max": [ 0.357325435, 10.8910961, 0.357325613 ]
		},
		{
			"bufferView": 57,
			"count": 760,
			"type": "VEC3",
			"componentType": 5126
		},
		{
			"bufferView": 58,
			"count": 760,
			"type": "VEC4",
			"componentType": 5126
		},
		{
			"bufferView": 59,
			"count": 760,
			"type": "VEC2",
			"componentType": 5126
		},
		{
			"bufferView": 60,
			"count": 22008,
			"type": "SCALAR",
			"componentType": 5123
		},
		{
			"bufferView": 61,
			"count": 5824,
			"type": "VEC3",
			"componentType": 5126,
			"min": [ -5.03656197, 3.87572503, -5.03656006 ],
			"max": [ 5.03656197, 5.39181852, 5.0365634 ]
		},
		{
			"bufferView": 62,
			"count": 5824,
			"type": "VEC3",
			"componentType": 5126
		},
		{
			"bufferView": 63,
			"count": 5824,
			"type": "VEC4",
			"componentType": 5126
		},
		{
			"bufferView": 64,
			"count": 5824,
			"type": "VEC2",
			"componentType": 5126
		},
		{
			"bufferView": 65,
			"count": 9756,
			"type": "SCALAR",
			"componentType": 5123
		},
		{
			"bufferView": 66,
			"count": 3786,
			"type": "VEC3",
			"componentType": 5126,
			"min": [ -3.42999983, -0.00482477341, -5.24499989 ],
			"max": [ 3.44249988, 0.594687998, 3.44249988 ]
		},
		{
			"bufferView": 67,
			"count": 3786,
			"type": "VEC3",
			"componentType": 5126
		},
		{
			"bufferView": 68,
			"count": 3786,
			"type": "VEC4",
			"componentType": 5126
		},
		{
			"bufferView": 69,
			"count": 3786,
			"type": "VEC2",
			"componentType": 5126
		},
		{
			"bufferView": 70,
			"count": 17820,
			"type": "SCALAR",
			"componentType": 5123
		},
		{
			"bufferView": 71,
			"count": 6671,
			"type": "VEC3",
			"componentType": 5126,
			"min": [ -3.31999993, 0.564061999, -3.31999993 ],
			"max": [ 3.31999993, 4.80000019, 3.31999993 ]
		},
		{
			"bufferView": 72,
			"count": 6671,
			"type": "VEC3",
			"componentType": 5126
		},
		{
			"bufferView": 73,
			"count": 6671,
			"type": "VEC4",
			"componentType": 5126
		},
		{
			"bufferView": 74,
			"count": 6671,
			"type": "VEC2",
			"componentType": 5126
		}
	],
	"buffers": [
		{
			"uri": "凉亭模.bin",
			"byteLength": 2295436
		}
	],
	"bufferViews": [
		{
			"buffer": 0,
			"byteLength": 36,
			"target": 34963
		},
		{
			"buffer": 0,
			"byteLength": 216,
			"byteOffset": 36,
			"target": 34962
		},
		{
			"buffer": 0,
			"byteLength": 216,
			"byteOffset": 252,
			"target": 34962
		},
		{
			"buffer": 0,
			"byteLength": 288,
			"byteOffset": 468,
			"target": 34962
		},
		{
			"buffer": 0,
			"byteLength": 144,
			"byteOffset": 756,
			"target": 34962
		},
		{
			"buffer": 0,
			"byteLength": 11136,
			"byteOffset": 900,
			"target": 34963
		},
		{
			"buffer": 0,
			"byteLength": 26796,
			"byteOffset": 12036,
			"target": 34962
		},
		{
			"buffer": 0,
			"byteLength": 26796,
			"byteOffset": 38832,
			"target": 34962
		},
		{
			"buffer": 0,
			"byteLength": 35728,
			"byteOffset": 65628,
			"target": 34962
		},
		{
			"buffer": 0,
			"byteLength": 17864,
			"byteOffset": 101356,
			"target": 34962
		},
		{
			"buffer": 0,
			"byteLength": 40320,
			"byteOffset": 119220,
			"target": 34963
		},
		{
			"buffer": 0,
			"byteLength": 125604,
			"byteOffset": 159540,
			"target": 34962
		},
		{
			"buffer": 0,
			"byteLength": 125604,
			"byteOffset": 285144,
			"target": 34962
		},
		{
			"buffer": 0,
			"byteLength": 167472,
			"byteOffset": 410748,
			"target": 34962
		},
		{
			"buffer": 0,
			"byteLength": 83736,
			"byteOffset": 578220,
			"target": 34962
		},
		{
			"buffer": 0,
			"byteLength": 18,
			"byteOffset": 661956,
			"target": 34963
		},
		{
			"buffer": 0,
			"byteLength": 96,
			"byteOffset": 661976,
			"target": 34962
		},
		{
			"buffer": 0,
			"byteLength": 96,
			"byteOffset": 662072,
			"target": 34962
		},
		{
			"buffer": 0,
			"byteLength": 128,
			"byteOffset": 662168,
			"target": 34962
		},
		{
			"buffer": 0,
			"byteLength": 64,
			"byteOffset": 662296,
			"target": 34962
		},
		{
			"buffer": 0,
			"byteLength": 1536,
			"byteOffset": 662360,
			"target": 34963
		},
		{
			"buffer": 0,
			"byteLength": 6144,
			"byteOffset": 663896,
			"target": 34962
		},
		{
			"buffer": 0,
			"byteLength": 6144,
			"byteOffset": 670040,
			"target": 34962
		},
		{
			"buffer": 0,
			"byteLength": 8192,
			"byteOffset": 676184,
			"target": 34962
		},
		{
			"buffer": 0,
			"byteLength": 4096,
			"byteOffset": 684376,
			"target": 34962
		},
		{
			"buffer": 0,
			"byteLength": 30240,
			"byteOffset": 688472,
			"target": 34963
		},
		{
			"buffer": 0,
			"byteLength": 80664,
			"byteOffset": 718712,
			"target": 34962
		},
		{
			"buffer": 0,
			"byteLength": 80664,
			"byteOffset": 799376,
			"target": 34962
		},
		{
			"buffer": 0,
			"byteLength": 107552,
			"byteOffset": 880040,
			"target": 34962
		},
		{
			"buffer": 0,
			"byteLength": 53776,
			"byteOffset": 987592,
			"target": 34962
		},
		{
			"buffer": 0,
			"byteLength": 7830,
			"byteOffset": 1041368,
			"target": 34963
		},
		{
			"buffer": 0,
			"byteLength": 18132,
			"byteOffset": 1049200,
			"target": 34962
		},
		{
			"buffer": 0,
			"byteLength": 18132,
			"byteOffset": 1067332,
			"target": 34962
		},
		{
			"buffer": 0,
			"byteLength": 24176,
			"byteOffset": 1085464,
			"target": 34962
		},
		{
			"buffer": 0,
			"byteLength": 12088,
			"byteOffset": 1109640,
			"target": 34962
		},
		{
			"buffer": 0,
			"byteLength": 9972,
			"byteOffset": 1121728,
			"target": 34963
		},
		{
			"buffer": 0,
			"byteLength": 19056,
			"byteOffset": 1131700,
			"target": 34962
		},
		{
			"buffer": 0,
			"byteLength": 19056,
			"byteOffset": 1150756,
			"target": 34962
		},
		{
			"buffer": 0,
			"byteLength": 25408,
			"byteOffset": 1169812,
			"target": 34962
		},
		{
			"buffer": 0,
			"byteLength": 12704,
			"byteOffset": 1195220,
			"target": 34962
		},
		{
			"buffer": 0,
			"byteLength": 96,
			"byteOffset": 1207924,
			"target": 34963
		},
		{
			"buffer": 0,
			"byteLength": 768,
			"byteOffset": 1208020,
			"target": 34962
		},
		{
			"buffer": 0,
			"byteLength": 768,
			"byteOffset": 1208788,
			"target": 34962
		},
		{
			"buffer": 0,
			"byteLength": 1024,
			"byteOffset": 1209556,
			"target": 34962
		},
		{
			"buffer": 0,
			"byteLength": 512,
			"byteOffset": 1210580,
			"target": 34962
		},
		{
			"buffer": 0,
			"byteLength": 7872,
			"byteOffset": 1211092,
			"target": 34963
		},
		{
			"buffer": 0,
			"byteLength": 23388,
			"byteOffset": 1218964,
			"target": 34962
		},
		{
			"buffer": 0,
			"byteLength": 23388,
			"byteOffset": 1242352,
			"target": 34962
		},
		{
			"buffer": 0,
			"byteLength": 31184,
			"byteOffset": 1265740,
			"target": 34962
		},
		{
			"buffer": 0,
			"byteLength": 15592,
			"byteOffset": 1296924,
			"target": 34962
		},
		{
			"buffer": 0,
			"byteLength": 8832,
			"byteOffset": 1312516,
			"target": 34963
		},
		{
			"buffer": 0,
			"byteLength": 13068,
			"byteOffset": 1321348,
			"target": 34962
		},
		{
			"buffer": 0,
			"byteLength": 13068,
			"byteOffset": 1334416,
			"target": 34962
		},
		{
			"buffer": 0,
			"byteLength": 17424,
			"byteOffset": 1347484,
			"target": 34962
		},
		{
			"buffer": 0,
			"byteLength": 8712,
			"byteOffset": 1364908,
			"target": 34962
		},
		{
			"buffer": 0,
			"byteLength": 4680,
			"byteOffset": 1373620,
			"target": 34963
		},
		{
			"buffer": 0,
			"byteLength": 9120,
			"byteOffset": 1378300,
			"target": 34962
		},
		{
			"buffer": 0,
			"byteLength": 9120,
			"byteOffset": 1387420,
			"target": 34962
		},
		{
			"buffer": 0,
			"byteLength": 12160,
			"byteOffset": 1396540,
			"target": 34962
		},
		{
			"buffer": 0,
			"byteLength": 6080,
			"byteOffset": 1408700,
			"target": 34962
		},
		{
			"buffer": 0,
			"byteLength": 44016,
			"byteOffset": 1414780,
			"target": 34963
		},
		{
			"buffer": 0,
			"byteLength": 69888,
			"byteOffset": 1458796,
			"target": 34962
		},
		{
			"buffer": 0,
			"byteLength": 69888,
			"byteOffset": 1528684,
			"target": 34962
		},
		{
			"buffer": 0,
			"byteLength": 93184,
			"byteOffset": 1598572,
			"target": 34962
		},
		{
			"buffer": 0,
			"byteLength": 46592,
			"byteOffset": 1691756,
			"target": 34962
		},
		{
			"buffer": 0,
			"byteLength": 19512,
			"byteOffset": 1738348,
			"target": 34963
		},
		{
			"buffer": 0,
			"byteLength": 45432,
			"byteOffset": 1757860,
			"target": 34962
		},
		{
			"buffer": 0,
			"byteLength": 45432,
			"byteOffset": 1803292,
			"target": 34962
		},
		{
			"buffer": 0,
			"byteLength": 60576,
			"byteOffset": 1848724,
			"target": 34962
		},
		{
			"buffer": 0,
			"byteLength": 30288,
			"byteOffset": 1909300,
			"target": 34962
		},
		{
			"buffer": 0,
			"byteLength": 35640,
			"byteOffset": 1939588,
			"target": 34963
		},
		{
			"buffer": 0,
			"byteLength": 80052,
			"byteOffset": 1975228,
			"target": 34962
		},
		{
			"buffer": 0,
			"byteLength": 80052,
			"byteOffset": 2055280,
			"target": 34962
		},
		{
			"buffer": 0,
			"byteLength": 106736,
			"byteOffset": 2135332,
			"target": 34962
		},
		{
			"buffer": 0,
			"byteLength": 53368,
			"byteOffset": 2242068,
			"target": 34962
		}
	],
	"images": [
		{
			"uri": "凉亭木地板CJ_BaseColor.png"
		},
		{
			"uri": "凉亭顶檐CJ_BaseColor.png"
		},
		{
			"uri": "凉亭木柱CJ_BaseColor.png"
		},
		{
			"uri": "凉亭木柱CJ_MetallicRoughness.png"
		},
		{
			"uri": "凉亭石底CJ_BaseColor.png"
		},
		{
			"uri": "凉亭底CJ_BaseColor.png"
		},
		{
			"uri": "凉亭木梯CJ_BaseColor.png"
		},
		{
			"uri": "凉亭铁边CJ_BaseColor.png"
		},
		{
			"uri": "院墙瓦CJ_BaseColor.png"
		},
		{
			"uri": "凉亭顶檐头CJ_BaseColor.png"
		},
		{
			"uri": "桥边CJ_BaseColor.png"
		},
		{
			"uri": "红色灯笼CJ_BaseColor.png"
		},
		{
			"uri": "红色灯笼CJ_Emissive.png"
		},
		{
			"uri": "凉亭底地边CJ_BaseColor.png"
		},
		{
			"uri": "凉亭木地板法线图.png"
		},
		{
			"uri": "凉亭顶檐法线图.png"
		},
		{
			"uri": "凉亭木柱法线图.png"
		},
		{
			"uri": "凉亭石底法线图.png"
		},
		{
			"uri": "凉亭底法线图.png"
		},
		{
			"uri": "凉亭木梯法线图.png"
		},
		{
			"uri": "凉亭铁边法线图.png"
		},
		{
			"uri": "院墙瓦法线图.png"
		},
		{
			"uri": "凉亭顶檐头法线图_Linear.png"
		},
		{
			"uri": "桥边法线图图.png"
		},
		{
			"uri": "红色灯笼法线图.png"
		},
		{
			"uri": "凉亭底地边法线图.png"
		}
	],
	"materials": [
		{
			"name": "凉亭木地板CJ",
			"pbrMetallicRoughness":
			{
				"baseColorTexture":
				{
					"index": 0
				},
				"metallicFactor": 0,
				"roughnessFactor": 0.800000072
			},
			"normalTexture":
			{
				"index": 1
			},
			"alphaMode": "MASK",
			"alphaCutoff": 0.333299994
		},
		{
			"name": "凉亭顶檐CJ",
			"pbrMetallicRoughness":
			{
				"baseColorTexture":
				{
					"index": 2
				},
				"metallicFactor": 0,
				"roughnessFactor": 0.800000072
			},
			"normalTexture":
			{
				"index": 3
			},
			"alphaMode": "MASK",
			"alphaCutoff": 0.333299994
		},
		{
			"name": "凉亭木柱CJ",
			"pbrMetallicRoughness":
			{
				"baseColorTexture":
				{
					"index": 4
				},
				"metallicRoughnessTexture":
				{
					"index": 5
				}
			},
			"normalTexture":
			{
				"index": 6
			},
			"alphaMode": "MASK",
			"alphaCutoff": 0.333299994
		},
		{
			"name": "凉亭石底CJ",
			"pbrMetallicRoughness":
			{
				"baseColorTexture":
				{
					"index": 7
				},
				"metallicFactor": 0,
				"roughnessFactor": 0.800000072
			},
			"normalTexture":
			{
				"index": 8
			},
			"alphaMode": "MASK",
			"alphaCutoff": 0.333299994
		},
		{
			"name": "凉亭底CJ",
			"pbrMetallicRoughness":
			{
				"baseColorTexture":
				{
					"index": 9
				},
				"metallicFactor": 0,
				"roughnessFactor": 0.800000072
			},
			"normalTexture":
			{
				"index": 10
			},
			"alphaMode": "MASK",
			"alphaCutoff": 0.333299994
		},
		{
			"name": "凉亭木梯CJ",
			"pbrMetallicRoughness":
			{
				"baseColorTexture":
				{
					"index": 11
				},
				"metallicFactor": 0,
				"roughnessFactor": 0.800000072
			},
			"normalTexture":
			{
				"index": 12
			},
			"alphaMode": "MASK",
			"alphaCutoff": 0.333299994
		},
		{
			"name": "凉亭铁边CJ",
			"pbrMetallicRoughness":
			{
				"baseColorTexture":
				{
					"index": 13
				},
				"metallicFactor": 0,
				"roughnessFactor": 0.800000072
			},
			"normalTexture":
			{
				"index": 14
			},
			"alphaMode": "MASK",
			"alphaCutoff": 0.333299994
		},
		{
			"name": "院墙瓦CJ",
			"pbrMetallicRoughness":
			{
				"baseColorTexture":
				{
					"index": 15
				},
				"metallicFactor": 0,
				"roughnessFactor": 0.800000072
			},
			"normalTexture":
			{
				"index": 16
			},
			"alphaMode": "MASK",
			"alphaCutoff": 0.333299994,
			"doubleSided": true
		},
		{
			"name": "凉亭顶檐头CJ",
			"pbrMetallicRoughness":
			{
				"baseColorTexture":
				{
					"index": 17
				},
				"metallicFactor": 0,
				"roughnessFactor": 0.800000072
			},
			"normalTexture":
			{
				"index": 18
			},
			"alphaMode": "MASK",
			"alphaCutoff": 0.333299994
		},
		{
			"name": "桥边CJ",
			"pbrMetallicRoughness":
			{
				"baseColorTexture":
				{
					"index": 19
				},
				"metallicFactor": 0,
				"roughnessFactor": 0.800000072
			},
			"normalTexture":
			{
				"index": 20
			},
			"alphaMode": "MASK",
			"alphaCutoff": 0.333299994
		},
		{
			"name": "红色灯笼CJ",
			"pbrMetallicRoughness":
			{
				"baseColorTexture":
				{
					"index": 21
				},
				"metallicFactor": 0,
				"roughnessFactor": 0.698039234
			},
			"normalTexture":
			{
				"index": 23
			},
			"emissiveTexture":
			{
				"index": 22
			},
			"emissiveFactor": [ 0.368652344, 0.368652344, 0.368652344 ],
			"alphaMode": "MASK",
			"alphaCutoff": 0.333299994
		},
		{
			"name": "凉亭底地边CJ",
			"pbrMetallicRoughness":
			{
				"baseColorTexture":
				{
					"index": 24
				},
				"metallicFactor": 0,
				"roughnessFactor": 0.800000072
			},
			"normalTexture":
			{
				"index": 25
			},
			"alphaMode": "MASK",
			"alphaCutoff": 0.333299994
		}
	],
	"meshes": [
		{
			"name": "凉亭模",
			"primitives": [
				{
					"attributes":
					{
						"POSITION": 1,
						"NORMAL": 2,
						"TANGENT": 3,
						"TEXCOORD_0": 4
					},
					"indices": 0,
					"material": 0
				},
				{
					"attributes":
					{
						"POSITION": 6,
						"NORMAL": 7,
						"TANGENT": 8,
						"TEXCOORD_0": 9
					},
					"indices": 5,
					"material": 1
				},
				{
					"attributes":
					{
						"POSITION": 11,
						"NORMAL": 12,
						"TANGENT": 13,
						"TEXCOORD_0": 14
					},
					"indices": 10,
					"material": 2
				},
				{
					"attributes":
					{
						"POSITION": 16,
						"NORMAL": 17,
						"TANGENT": 18,
						"TEXCOORD_0": 19
					},
					"indices": 15,
					"material": 3
				},
				{
					"attributes":
					{
						"POSITION": 21,
						"NORMAL": 22,
						"TANGENT": 23,
						"TEXCOORD_0": 24
					},
					"indices": 20,
					"material": 4
				},
				{
					"attributes":
					{
						"POSITION": 26,
						"NORMAL": 27,
						"TANGENT": 28,
						"TEXCOORD_0": 29
					},
					"indices": 25,
					"material": 5
				},
				{
					"attributes":
					{
						"POSITION": 31,
						"NORMAL": 32,
						"TANGENT": 33,
						"TEXCOORD_0": 34
					},
					"indices": 30,
					"material": 6
				},
				{
					"attributes":
					{
						"POSITION": 36,
						"NORMAL": 37,
						"TANGENT": 38,
						"TEXCOORD_0": 39
					},
					"indices": 35,
					"material": 7
				},
				{
					"attributes":
					{
						"POSITION": 41,
						"NORMAL": 42,
						"TANGENT": 43,
						"TEXCOORD_0": 44
					},
					"indices": 40,
					"material": 0
				},
				{
					"attributes":
					{
						"POSITION": 46,
						"NORMAL": 47,
						"TANGENT": 48,
						"TEXCOORD_0": 49
					},
					"indices": 45,
					"material": 5
				},
				{
					"attributes":
					{
						"POSITION": 51,
						"NORMAL": 52,
						"TANGENT": 53,
						"TEXCOORD_0": 54
					},
					"indices": 50,
					"material": 8
				},
				{
					"attributes":
					{
						"POSITION": 56,
						"NORMAL": 57,
						"TANGENT": 58,
						"TEXCOORD_0": 59
					},
					"indices": 55,
					"material": 9
				},
				{
					"attributes":
					{
						"POSITION": 61,
						"NORMAL": 62,
						"TANGENT": 63,
						"TEXCOORD_0": 64
					},
					"indices": 60,
					"material": 10
				},
				{
					"attributes":
					{
						"POSITION": 66,
						"NORMAL": 67,
						"TANGENT": 68,
						"TEXCOORD_0": 69
					},
					"indices": 65,
					"material": 11
				},
				{
					"attributes":
					{
						"POSITION": 71,
						"NORMAL": 72,
						"TANGENT": 73,
						"TEXCOORD_0": 74
					},
					"indices": 70,
					"material": 2
				}
			]
		}
	],
	"nodes": [
		{
			"mesh": 0
		}
	],
	"samplers": [
		{
			"minFilter": 9987,
			"magFilter": 9729
		}
	],
	"scenes": [
		{
			"nodes": [ 0 ]
		}
	],
	"textures": [
		{
			"name": "凉亭木地板CJ_BaseColor",
			"sampler": 0,
			"source": 0
		},
		{
			"name": "凉亭木地板法线图",
			"sampler": 0,
			"source": 14
		},
		{
			"name": "凉亭顶檐CJ_BaseColor",
			"sampler": 0,
			"source": 1
		},
		{
			"name": "凉亭顶檐法线图",
			"sampler": 0,
			"source": 15
		},
		{
			"name": "凉亭木柱CJ_BaseColor",
			"sampler": 0,
			"source": 2
		},
		{
			"name": "凉亭木柱CJ_MetallicRoughness",
			"sampler": 0,
			"source": 3
		},
		{
			"name": "凉亭木柱法线图",
			"sampler": 0,
			"source": 16
		},
		{
			"name": "凉亭石底CJ_BaseColor",
			"sampler": 0,
			"source": 4
		},
		{
			"name": "凉亭石底法线图",
			"sampler": 0,
			"source": 17
		},
		{
			"name": "凉亭底CJ_BaseColor",
			"sampler": 0,
			"source": 5
		},
		{
			"name": "凉亭底法线图",
			"sampler": 0,
			"source": 18
		},
		{
			"name": "凉亭木梯CJ_BaseColor",
			"sampler": 0,
			"source": 6
		},
		{
			"name": "凉亭木梯法线图",
			"sampler": 0,
			"source": 19
		},
		{
			"name": "凉亭铁边CJ_BaseColor",
			"sampler": 0,
			"source": 7
		},
		{
			"name": "凉亭铁边法线图",
			"sampler": 0,
			"source": 20
		},
		{
			"name": "院墙瓦CJ_BaseColor",
			"sampler": 0,
			"source": 8
		},
		{
			"name": "院墙瓦法线图",
			"sampler": 0,
			"source": 21
		},
		{
			"name": "凉亭顶檐头CJ_BaseColor",
			"sampler": 0,
			"source": 9
		},
		{
			"name": "凉亭顶檐头法线图_Linear",
			"sampler": 0,
			"source": 22
		},
		{
			"name": "桥边CJ_BaseColor",
			"sampler": 0,
			"source": 10
		},
		{
			"name": "桥边法线图图",
			"sampler": 0,
			"source": 23
		},
		{
			"name": "红色灯笼CJ_BaseColor",
			"sampler": 0,
			"source": 11
		},
		{
			"name": "红色灯笼CJ_Emissive",
			"sampler": 0,
			"source": 12
		},
		{
			"name": "红色灯笼法线图",
			"sampler": 0,
			"source": 24
		},
		{
			"name": "凉亭底地边CJ_BaseColor",
			"sampler": 0,
			"source": 13
		},
		{
			"name": "凉亭底地边法线图",
			"sampler": 0,
			"source": 25
		}
	]
}